<mxfile host="app.diagrams.net" modified="2023-08-03T18:24:11.115Z" agent="Mozilla/5.0 (Windows NT 10.0; Win64; x64) AppleWebKit/537.36 (KHTML, like Gecko) Chrome/115.0.0.0 Safari/537.36" etag="wl40414FZqLUDrZd8C40" version="21.6.5" type="github">
  <diagram id="36RqeXvSD2yGZV3YzJqm" name="taxonomy">
    <mxGraphModel dx="-3630" dy="-4940" grid="1" gridSize="10" guides="1" tooltips="1" connect="1" arrows="1" fold="1" page="0" pageScale="1" pageWidth="827" pageHeight="1169" math="0" shadow="0">
      <root>
        <mxCell id="0" />
        <mxCell id="1" parent="0" />
        <mxCell id="cmqR2VDgh2ofJEkPEw-d-1" value="" style="rounded=0;whiteSpace=wrap;html=1;fillColor=#d5e8d4;strokeColor=#82b366;opacity=40;" parent="1" vertex="1">
          <mxGeometry x="7990" y="7400" width="1243" height="959" as="geometry" />
        </mxCell>
        <mxCell id="cmqR2VDgh2ofJEkPEw-d-2" value="" style="rounded=0;whiteSpace=wrap;html=1;fillColor=#ffe6cc;strokeColor=#d79b00;opacity=40;" parent="1" vertex="1">
          <mxGeometry x="9254.99" y="7400" width="1240" height="960" as="geometry" />
        </mxCell>
        <mxCell id="cmqR2VDgh2ofJEkPEw-d-3" value="" style="rounded=0;whiteSpace=wrap;html=1;fillColor=#f8cecc;strokeColor=#b85450;opacity=40;" parent="1" vertex="1">
          <mxGeometry x="7990" y="8380" width="1240" height="670" as="geometry" />
        </mxCell>
        <mxCell id="cmqR2VDgh2ofJEkPEw-d-4" value="" style="rounded=0;whiteSpace=wrap;html=1;fillColor=#dae8fc;strokeColor=#6c8ebf;opacity=40;" parent="1" vertex="1">
          <mxGeometry x="9255" y="8380" width="1239.99" height="670" as="geometry" />
        </mxCell>
        <mxCell id="cmqR2VDgh2ofJEkPEw-d-23" value="" style="rounded=0;whiteSpace=wrap;html=1;fillColor=#f5f5f5;strokeColor=#666666;opacity=50;fontColor=#333333;strokeWidth=3;" parent="1" vertex="1">
          <mxGeometry x="8020" y="8059" width="2440" height="960" as="geometry" />
        </mxCell>
        <mxCell id="cmqR2VDgh2ofJEkPEw-d-26" value="" style="endArrow=none;html=1;rounded=0;fontStyle=1;endFill=0;" parent="1" edge="1">
          <mxGeometry width="50" height="50" relative="1" as="geometry">
            <mxPoint x="7930" y="9120" as="sourcePoint" />
            <mxPoint x="7930" y="7350" as="targetPoint" />
          </mxGeometry>
        </mxCell>
        <mxCell id="cmqR2VDgh2ofJEkPEw-d-27" value="" style="endArrow=none;html=1;rounded=0;fontStyle=1;endFill=0;" parent="1" edge="1">
          <mxGeometry width="50" height="50" relative="1" as="geometry">
            <mxPoint x="7929" y="9120" as="sourcePoint" />
            <mxPoint x="10520" y="9120" as="targetPoint" />
          </mxGeometry>
        </mxCell>
        <mxCell id="cmqR2VDgh2ofJEkPEw-d-50" value="&lt;font style=&quot;font-size: 70px;&quot;&gt;Funds Controlability&lt;/font&gt;" style="text;html=1;strokeColor=none;fillColor=none;align=center;verticalAlign=middle;whiteSpace=wrap;rounded=0;rotation=-90;fontStyle=1;fontSize=55;" parent="1" vertex="1">
          <mxGeometry x="7490" y="8177" width="790" height="16" as="geometry" />
        </mxCell>
        <mxCell id="cmqR2VDgh2ofJEkPEw-d-51" value="&lt;font style=&quot;font-size: 70px;&quot;&gt;Non-Custodial Wallets&lt;/font&gt;" style="text;html=1;strokeColor=none;fillColor=none;align=center;verticalAlign=middle;whiteSpace=wrap;rounded=0;rotation=-90;fontStyle=1;fontSize=50;" parent="1" vertex="1">
          <mxGeometry x="7561.76" y="7736.19" width="799.93" height="16" as="geometry" />
        </mxCell>
        <mxCell id="cmqR2VDgh2ofJEkPEw-d-52" value="&lt;font style=&quot;font-size: 70px;&quot;&gt;Custodial Wallets&lt;/font&gt;" style="text;html=1;strokeColor=none;fillColor=none;align=center;verticalAlign=middle;whiteSpace=wrap;rounded=0;rotation=-90;fontStyle=1;fontSize=50;" parent="1" vertex="1">
          <mxGeometry x="7661.73" y="8690" width="600" height="16" as="geometry" />
        </mxCell>
        <mxCell id="cmqR2VDgh2ofJEkPEw-d-53" value="&lt;font style=&quot;font-size: 70px;&quot;&gt;Internet Connectivity&lt;/font&gt;" style="text;html=1;strokeColor=none;fillColor=none;align=center;verticalAlign=middle;whiteSpace=wrap;rounded=0;fontStyle=1;fontSize=55;" parent="1" vertex="1">
          <mxGeometry x="8948.56" y="9150" width="761.44" height="16" as="geometry" />
        </mxCell>
        <mxCell id="cmqR2VDgh2ofJEkPEw-d-54" value="&lt;font style=&quot;font-size: 70px;&quot;&gt;Cold Wallets&lt;/font&gt;" style="text;html=1;strokeColor=none;fillColor=none;align=center;verticalAlign=middle;whiteSpace=wrap;rounded=0;fontStyle=1;fontSize=50;" parent="1" vertex="1">
          <mxGeometry x="9656.99" y="9074" width="436.01" height="16" as="geometry" />
        </mxCell>
        <mxCell id="cmqR2VDgh2ofJEkPEw-d-76" value="" style="shape=corner;whiteSpace=wrap;html=1;dx=324;dy=250;fillColor=#C2B89B;strokeColor=#d6b656;opacity=50;flipH=0;flipV=1;" parent="1" vertex="1">
          <mxGeometry x="8040" y="8089" width="2350" height="900" as="geometry" />
        </mxCell>
        <mxCell id="cmqR2VDgh2ofJEkPEw-d-55" value="&lt;font style=&quot;font-size: 70px;&quot;&gt;Hot Wallets&lt;/font&gt;" style="text;html=1;strokeColor=none;fillColor=none;align=center;verticalAlign=middle;whiteSpace=wrap;rounded=0;fontStyle=1;fontSize=50;" parent="1" vertex="1">
          <mxGeometry x="8470.5" y="9074" width="419.5" height="16" as="geometry" />
        </mxCell>
        <mxCell id="Dvuu4yCtvVS3nF8p24eP-38" value="&lt;font style=&quot;font-size: 58px;&quot;&gt;Kraken&lt;/font&gt;" style="rounded=1;whiteSpace=wrap;html=1;fillColor=#bac8d3;strokeColor=#23445d;container=0;fontStyle=1" parent="1" vertex="1">
          <mxGeometry x="8069.49" y="8563" width="266.53" height="80" as="geometry" />
        </mxCell>
        <mxCell id="cmqR2VDgh2ofJEkPEw-d-77" value="" style="rounded=0;whiteSpace=wrap;html=1;fillColor=#BFB6C4;strokeColor=#9673a6;opacity=50;" parent="1" vertex="1">
          <mxGeometry x="8448" y="8089" width="327" height="630" as="geometry" />
        </mxCell>
        <mxCell id="cmqR2VDgh2ofJEkPEw-d-79" value="" style="shape=corner;whiteSpace=wrap;html=1;dx=324;dy=250;fillColor=#C2A8A5;strokeColor=#ae4132;opacity=50;flipH=0;flipV=0;" parent="1" vertex="1">
          <mxGeometry x="8830" y="8089" width="1560" height="630" as="geometry" />
        </mxCell>
        <mxCell id="cmqR2VDgh2ofJEkPEw-d-80" value="&lt;font style=&quot;font-size: 58px;&quot;&gt;CoinEx&lt;/font&gt;" style="rounded=1;whiteSpace=wrap;html=1;fillColor=#bac8d3;strokeColor=#23445d;container=0;fontStyle=1" parent="1" vertex="1">
          <mxGeometry x="8069.49" y="8457" width="266.53" height="80" as="geometry" />
        </mxCell>
        <mxCell id="cmqR2VDgh2ofJEkPEw-d-81" value="&lt;font style=&quot;font-size: 64px;&quot;&gt;Web &lt;br&gt;Wallets&lt;/font&gt;" style="text;html=1;strokeColor=none;fillColor=none;align=center;verticalAlign=middle;whiteSpace=wrap;rounded=0;fontStyle=1;fontSize=45;" parent="1" vertex="1">
          <mxGeometry x="8010" y="8357" width="385.5" height="30" as="geometry" />
        </mxCell>
        <mxCell id="cmqR2VDgh2ofJEkPEw-d-82" value="&lt;font style=&quot;font-size: 58px;&quot;&gt;MetaMask&lt;/font&gt;" style="rounded=1;whiteSpace=wrap;html=1;fillColor=#bac8d3;strokeColor=#23445d;container=0;fontStyle=1" parent="1" vertex="1">
          <mxGeometry x="8069.49" y="8110" width="266.53" height="80" as="geometry" />
        </mxCell>
        <mxCell id="cmqR2VDgh2ofJEkPEw-d-83" value="&lt;font style=&quot;font-size: 58px;&quot;&gt;Guarda&lt;/font&gt;" style="rounded=1;whiteSpace=wrap;html=1;fillColor=#bac8d3;strokeColor=#23445d;container=0;fontStyle=1" parent="1" vertex="1">
          <mxGeometry x="8069.49" y="8210" width="266.53" height="80" as="geometry" />
        </mxCell>
        <mxCell id="cmqR2VDgh2ofJEkPEw-d-84" value="&lt;font style=&quot;font-size: 64px;&quot;&gt;Mobile &lt;br&gt;Wallets&lt;/font&gt;" style="text;html=1;strokeColor=none;fillColor=none;align=center;verticalAlign=middle;whiteSpace=wrap;rounded=0;fontStyle=1;fontSize=45;" parent="1" vertex="1">
          <mxGeometry x="8407.13" y="8359" width="422.87" height="30" as="geometry" />
        </mxCell>
        <mxCell id="cmqR2VDgh2ofJEkPEw-d-85" value="&lt;font style=&quot;font-size: 58px;&quot;&gt;Trust&lt;/font&gt;" style="rounded=1;whiteSpace=wrap;html=1;fillColor=#bac8d3;strokeColor=#23445d;container=0;fontStyle=1" parent="1" vertex="1">
          <mxGeometry x="8478.24" y="8110" width="266.53" height="80" as="geometry" />
        </mxCell>
        <mxCell id="cmqR2VDgh2ofJEkPEw-d-86" value="&lt;font style=&quot;font-size: 58px;&quot;&gt;Edge&lt;/font&gt;" style="rounded=1;whiteSpace=wrap;html=1;fillColor=#bac8d3;strokeColor=#23445d;container=0;fontStyle=1" parent="1" vertex="1">
          <mxGeometry x="8476.74" y="8210" width="266.53" height="80" as="geometry" />
        </mxCell>
        <mxCell id="cmqR2VDgh2ofJEkPEw-d-87" value="&lt;font style=&quot;font-size: 58px;&quot;&gt;Coinbase&lt;/font&gt;" style="rounded=1;whiteSpace=wrap;html=1;fillColor=#bac8d3;strokeColor=#23445d;container=0;fontStyle=1" parent="1" vertex="1">
          <mxGeometry x="8476.74" y="8457" width="266.53" height="80" as="geometry" />
        </mxCell>
        <mxCell id="cmqR2VDgh2ofJEkPEw-d-88" value="&lt;font style=&quot;font-size: 58px;&quot;&gt;Binance&lt;/font&gt;" style="rounded=1;whiteSpace=wrap;html=1;fillColor=#bac8d3;strokeColor=#23445d;container=0;fontStyle=1" parent="1" vertex="1">
          <mxGeometry x="8476.74" y="8563" width="266.53" height="80" as="geometry" />
        </mxCell>
        <mxCell id="cmqR2VDgh2ofJEkPEw-d-89" value="&lt;font style=&quot;font-size: 64px;&quot;&gt;Desktop Wallets&lt;/font&gt;" style="text;html=1;strokeColor=none;fillColor=none;align=center;verticalAlign=middle;whiteSpace=wrap;rounded=0;fontStyle=1;fontSize=45;" parent="1" vertex="1">
          <mxGeometry x="8820" y="8357" width="352.75" height="30" as="geometry" />
        </mxCell>
        <mxCell id="cmqR2VDgh2ofJEkPEw-d-90" value="&lt;font style=&quot;font-size: 58px;&quot;&gt;Atomic&lt;/font&gt;" style="rounded=1;whiteSpace=wrap;html=1;fillColor=#bac8d3;strokeColor=#23445d;container=0;fontStyle=1" parent="1" vertex="1">
          <mxGeometry x="8863.11" y="8110" width="266.53" height="80" as="geometry" />
        </mxCell>
        <mxCell id="cmqR2VDgh2ofJEkPEw-d-91" value="&lt;font style=&quot;font-size: 58px;&quot;&gt;Exodus&lt;/font&gt;" style="rounded=1;whiteSpace=wrap;html=1;fillColor=#bac8d3;strokeColor=#23445d;container=0;fontStyle=1" parent="1" vertex="1">
          <mxGeometry x="8863.11" y="8210" width="266.53" height="80" as="geometry" />
        </mxCell>
        <mxCell id="cmqR2VDgh2ofJEkPEw-d-92" value="&lt;font style=&quot;font-size: 58px;&quot;&gt;eToro&lt;/font&gt;" style="rounded=1;whiteSpace=wrap;html=1;fillColor=#bac8d3;strokeColor=#23445d;container=0;fontStyle=1" parent="1" vertex="1">
          <mxGeometry x="8863.11" y="8457" width="266.53" height="80" as="geometry" />
        </mxCell>
        <mxCell id="cmqR2VDgh2ofJEkPEw-d-93" value="&lt;font style=&quot;font-size: 58px;&quot;&gt;Bitbuy&lt;/font&gt;" style="rounded=1;whiteSpace=wrap;html=1;fillColor=#bac8d3;strokeColor=#23445d;container=0;fontStyle=1" parent="1" vertex="1">
          <mxGeometry x="8863.11" y="8563" width="266.53" height="80" as="geometry" />
        </mxCell>
        <mxCell id="cmqR2VDgh2ofJEkPEw-d-94" value="&lt;font style=&quot;font-size: 64px;&quot;&gt;Software Wallets&lt;/font&gt;" style="text;html=1;strokeColor=none;fillColor=none;align=center;verticalAlign=middle;whiteSpace=wrap;rounded=0;fontStyle=1;fontSize=47;" parent="1" vertex="1">
          <mxGeometry x="9604.62" y="8524" width="532.75" height="30" as="geometry" />
        </mxCell>
        <mxCell id="cmqR2VDgh2ofJEkPEw-d-95" value="" style="rounded=0;whiteSpace=wrap;html=1;fillColor=#f5f5f5;strokeColor=#666666;opacity=50;fontColor=#333333;strokeWidth=3;" parent="1" vertex="1">
          <mxGeometry x="9266" y="7880" width="1214" height="151.75" as="geometry" />
        </mxCell>
        <mxCell id="cmqR2VDgh2ofJEkPEw-d-96" value="" style="rounded=0;whiteSpace=wrap;html=1;fillColor=#f5f5f5;strokeColor=#666666;opacity=50;fontColor=#333333;strokeWidth=3;" parent="1" vertex="1">
          <mxGeometry x="9266" y="7419" width="1210" height="450" as="geometry" />
        </mxCell>
        <mxCell id="cmqR2VDgh2ofJEkPEw-d-97" value="&lt;font style=&quot;font-size: 58px;&quot;&gt;bitaddress.org&lt;/font&gt;" style="rounded=1;whiteSpace=wrap;html=1;fillColor=#bac8d3;strokeColor=#23445d;container=0;fontStyle=1" parent="1" vertex="1">
          <mxGeometry x="9390" y="7896" width="453.25" height="80" as="geometry" />
        </mxCell>
        <mxCell id="cmqR2VDgh2ofJEkPEw-d-98" value="&lt;font style=&quot;font-size: 64px;&quot;&gt;Paper Wallets&lt;/font&gt;" style="text;html=1;strokeColor=none;fillColor=none;align=center;verticalAlign=middle;whiteSpace=wrap;rounded=0;fontStyle=1;fontSize=47;" parent="1" vertex="1">
          <mxGeometry x="9634.119999999999" y="8000" width="477.76" height="30" as="geometry" />
        </mxCell>
        <mxCell id="cmqR2VDgh2ofJEkPEw-d-99" value="&lt;font style=&quot;font-size: 58px;&quot;&gt;walletgenerator&lt;/font&gt;" style="rounded=1;whiteSpace=wrap;html=1;fillColor=#bac8d3;strokeColor=#23445d;container=0;fontStyle=1" parent="1" vertex="1">
          <mxGeometry x="9896.72" y="7896" width="513.28" height="80" as="geometry" />
        </mxCell>
        <mxCell id="cmqR2VDgh2ofJEkPEw-d-100" value="" style="rounded=1;whiteSpace=wrap;html=1;fillColor=#fa6800;strokeColor=#C73500;opacity=50;fontColor=#000000;" parent="1" vertex="1">
          <mxGeometry x="9272" y="7437" width="628" height="176" as="geometry" />
        </mxCell>
        <mxCell id="cmqR2VDgh2ofJEkPEw-d-101" value="&lt;font style=&quot;font-size: 58px;&quot;&gt;KeepKey&lt;/font&gt;" style="rounded=1;whiteSpace=wrap;html=1;fillColor=#bac8d3;strokeColor=#23445d;container=0;fontStyle=1" parent="1" vertex="1">
          <mxGeometry x="9276.66" y="7519" width="250.06" height="80" as="geometry" />
        </mxCell>
        <mxCell id="cmqR2VDgh2ofJEkPEw-d-102" value="&lt;font style=&quot;font-size: 58px;&quot;&gt;CoolWallet S&lt;/font&gt;" style="rounded=1;whiteSpace=wrap;html=1;fillColor=#bac8d3;strokeColor=#23445d;container=0;fontStyle=1" parent="1" vertex="1">
          <mxGeometry x="9538.47" y="7517" width="361.53" height="80" as="geometry" />
        </mxCell>
        <mxCell id="cmqR2VDgh2ofJEkPEw-d-103" value="&lt;font style=&quot;font-size: 64px;&quot;&gt;Hardware Wallets&lt;/font&gt;" style="text;html=1;strokeColor=none;fillColor=none;align=center;verticalAlign=middle;whiteSpace=wrap;rounded=0;fontStyle=1;fontSize=47;" parent="1" vertex="1">
          <mxGeometry x="9546.560000000001" y="7824.5" width="648.88" height="30" as="geometry" />
        </mxCell>
        <mxCell id="cmqR2VDgh2ofJEkPEw-d-104" value="&lt;font style=&quot;font-size: 60px;&quot;&gt;Smart Card&lt;/font&gt;" style="text;html=1;strokeColor=none;fillColor=none;align=center;verticalAlign=middle;whiteSpace=wrap;rounded=0;fontStyle=1;fontSize=45;" parent="1" vertex="1">
          <mxGeometry x="9436.25" y="7445" width="353.75" height="30" as="geometry" />
        </mxCell>
        <mxCell id="cmqR2VDgh2ofJEkPEw-d-114" value="" style="rounded=1;whiteSpace=wrap;html=1;fillColor=#e3c800;strokeColor=#B09500;opacity=50;fontColor=#000000;" parent="1" vertex="1">
          <mxGeometry x="9500" y="7625" width="706" height="176" as="geometry" />
        </mxCell>
        <mxCell id="cmqR2VDgh2ofJEkPEw-d-115" value="&lt;font style=&quot;font-size: 58px;&quot;&gt;Bitfi Knox&lt;/font&gt;" style="rounded=1;whiteSpace=wrap;html=1;fillColor=#bac8d3;strokeColor=#23445d;container=0;fontStyle=1" parent="1" vertex="1">
          <mxGeometry x="9520" y="7705" width="319" height="80" as="geometry" />
        </mxCell>
        <mxCell id="cmqR2VDgh2ofJEkPEw-d-116" value="&lt;font style=&quot;font-size: 58px;&quot;&gt;Keystone&lt;/font&gt;" style="rounded=1;whiteSpace=wrap;html=1;fillColor=#bac8d3;strokeColor=#23445d;container=0;fontStyle=1" parent="1" vertex="1">
          <mxGeometry x="9856" y="7705" width="310" height="80" as="geometry" />
        </mxCell>
        <mxCell id="cmqR2VDgh2ofJEkPEw-d-117" value="&lt;font style=&quot;font-size: 60px;&quot;&gt;Air-gapped&lt;/font&gt;" style="text;html=1;strokeColor=none;fillColor=none;align=center;verticalAlign=middle;whiteSpace=wrap;rounded=0;fontStyle=1;fontSize=45;" parent="1" vertex="1">
          <mxGeometry x="9742.25" y="7652" width="337.75" height="30" as="geometry" />
        </mxCell>
        <mxCell id="cmqR2VDgh2ofJEkPEw-d-124" value="" style="rounded=1;whiteSpace=wrap;html=1;fillColor=#f0a30a;strokeColor=#BD7000;opacity=50;fontColor=#000000;" parent="1" vertex="1">
          <mxGeometry x="9960" y="7437" width="508" height="176" as="geometry" />
        </mxCell>
        <mxCell id="cmqR2VDgh2ofJEkPEw-d-125" value="&lt;font style=&quot;font-size: 58px;&quot;&gt;Ledger&lt;/font&gt;" style="rounded=1;whiteSpace=wrap;html=1;fillColor=#bac8d3;strokeColor=#23445d;container=0;fontStyle=1" parent="1" vertex="1">
          <mxGeometry x="9968" y="7519" width="236" height="80" as="geometry" />
        </mxCell>
        <mxCell id="cmqR2VDgh2ofJEkPEw-d-126" value="&lt;font style=&quot;font-size: 58px;&quot;&gt;Trezor&lt;/font&gt;" style="rounded=1;whiteSpace=wrap;html=1;fillColor=#bac8d3;strokeColor=#23445d;container=0;fontStyle=1" parent="1" vertex="1">
          <mxGeometry x="10250" y="7517" width="219.74" height="80" as="geometry" />
        </mxCell>
        <mxCell id="cmqR2VDgh2ofJEkPEw-d-127" value="&lt;font style=&quot;font-size: 60px;&quot;&gt;USB&lt;/font&gt;" style="text;html=1;strokeColor=none;fillColor=none;align=center;verticalAlign=middle;whiteSpace=wrap;rounded=0;fontStyle=1;fontSize=45;" parent="1" vertex="1">
          <mxGeometry x="10038.25" y="7445" width="265.5" height="30" as="geometry" />
        </mxCell>
        <mxCell id="cmqR2VDgh2ofJEkPEw-d-128" value="&lt;font style=&quot;font-size: 60px;&quot;&gt;Samourai&lt;/font&gt;" style="rounded=1;whiteSpace=wrap;html=1;fillColor=#bac8d3;strokeColor=#23445d;container=0;fontStyle=1" parent="1" vertex="1">
          <mxGeometry x="9526.720000000001" y="8110" width="266.53" height="80" as="geometry" />
        </mxCell>
        <mxCell id="cmqR2VDgh2ofJEkPEw-d-129" value="&lt;font style=&quot;font-size: 60px;&quot;&gt;Armory&lt;/font&gt;" style="rounded=1;whiteSpace=wrap;html=1;fillColor=#bac8d3;strokeColor=#23445d;container=0;fontStyle=1" parent="1" vertex="1">
          <mxGeometry x="9830" y="8110" width="266.53" height="80" as="geometry" />
        </mxCell>
        <mxCell id="cmqR2VDgh2ofJEkPEw-d-130" value="&lt;font style=&quot;font-size: 60px;&quot;&gt;GreenAddress&lt;/font&gt;" style="rounded=1;whiteSpace=wrap;html=1;fillColor=#bac8d3;strokeColor=#23445d;container=0;fontStyle=1" parent="1" vertex="1">
          <mxGeometry x="9570" y="8210" width="490" height="80" as="geometry" />
        </mxCell>
        <mxCell id="cmqR2VDgh2ofJEkPEw-d-131" value="&lt;font style=&quot;font-size: 45px;&quot;&gt;Kingdom Trust&lt;/font&gt;" style="rounded=1;whiteSpace=wrap;html=1;fillColor=#bac8d3;strokeColor=#23445d;container=0;fontStyle=1" parent="1" vertex="1">
          <mxGeometry x="9426.220000000001" y="8870" width="376.53" height="80" as="geometry" />
        </mxCell>
        <mxCell id="cmqR2VDgh2ofJEkPEw-d-132" value="&lt;font style=&quot;font-size: 45px;&quot;&gt;Xapo&lt;/font&gt;" style="rounded=1;whiteSpace=wrap;html=1;fillColor=#bac8d3;strokeColor=#23445d;container=0;fontStyle=1" parent="1" vertex="1">
          <mxGeometry x="9670" y="8770" width="266.53" height="80" as="geometry" />
        </mxCell>
        <mxCell id="cmqR2VDgh2ofJEkPEw-d-133" value="&lt;font style=&quot;font-size: 45px;&quot;&gt;Anchorage&lt;/font&gt;" style="rounded=1;whiteSpace=wrap;html=1;fillColor=#bac8d3;strokeColor=#23445d;container=0;fontStyle=1" parent="1" vertex="1">
          <mxGeometry x="9829.47" y="8870" width="376.53" height="80" as="geometry" />
        </mxCell>
        <mxCell id="cmqR2VDgh2ofJEkPEw-d-134" value="" style="shape=image;html=1;verticalAlign=top;verticalLabelPosition=bottom;labelBackgroundColor=#ffffff;imageAspect=0;aspect=fixed;image=https://cdn0.iconfinder.com/data/icons/colourful-education/250/brain-128.png" parent="1" vertex="1">
          <mxGeometry x="10160" y="7300" width="100" height="100" as="geometry" />
        </mxCell>
        <mxCell id="cmqR2VDgh2ofJEkPEw-d-135" value="&lt;font style=&quot;font-size: 55px;&quot;&gt;Brain Wallet&lt;/font&gt;" style="text;html=1;strokeColor=none;fillColor=none;align=center;verticalAlign=middle;whiteSpace=wrap;rounded=0;fontStyle=1;fontSize=37;" parent="1" vertex="1">
          <mxGeometry x="10230" y="7335" width="360" height="30" as="geometry" />
        </mxCell>
        <mxCell id="cmqR2VDgh2ofJEkPEw-d-136" value="" style="shape=image;html=1;verticalAlign=top;verticalLabelPosition=bottom;labelBackgroundColor=#ffffff;imageAspect=0;aspect=fixed;image=https://cdn0.iconfinder.com/data/icons/colourful-education/250/brain-128.png" parent="1" vertex="1">
          <mxGeometry x="8289.49" y="8070" width="100" height="100" as="geometry" />
        </mxCell>
        <mxCell id="cmqR2VDgh2ofJEkPEw-d-137" value="" style="shape=image;html=1;verticalAlign=top;verticalLabelPosition=bottom;labelBackgroundColor=#ffffff;imageAspect=0;aspect=fixed;image=https://cdn0.iconfinder.com/data/icons/colourful-education/250/brain-128.png" parent="1" vertex="1">
          <mxGeometry x="8289.49" y="8180" width="100" height="100" as="geometry" />
        </mxCell>
        <mxCell id="cmqR2VDgh2ofJEkPEw-d-138" value="" style="shape=image;html=1;verticalAlign=top;verticalLabelPosition=bottom;labelBackgroundColor=#ffffff;imageAspect=0;aspect=fixed;image=https://cdn0.iconfinder.com/data/icons/colourful-education/250/brain-128.png" parent="1" vertex="1">
          <mxGeometry x="8690" y="8070" width="100" height="100" as="geometry" />
        </mxCell>
        <mxCell id="cmqR2VDgh2ofJEkPEw-d-139" value="" style="shape=image;html=1;verticalAlign=top;verticalLabelPosition=bottom;labelBackgroundColor=#ffffff;imageAspect=0;aspect=fixed;image=https://cdn0.iconfinder.com/data/icons/colourful-education/250/brain-128.png" parent="1" vertex="1">
          <mxGeometry x="8690" y="8180" width="100" height="100" as="geometry" />
        </mxCell>
        <mxCell id="cmqR2VDgh2ofJEkPEw-d-140" value="" style="shape=image;html=1;verticalAlign=top;verticalLabelPosition=bottom;labelBackgroundColor=#ffffff;imageAspect=0;aspect=fixed;image=https://cdn0.iconfinder.com/data/icons/colourful-education/250/brain-128.png" parent="1" vertex="1">
          <mxGeometry x="9080" y="8070" width="100" height="100" as="geometry" />
        </mxCell>
        <mxCell id="cmqR2VDgh2ofJEkPEw-d-141" value="" style="shape=image;html=1;verticalAlign=top;verticalLabelPosition=bottom;labelBackgroundColor=#ffffff;imageAspect=0;aspect=fixed;image=https://cdn0.iconfinder.com/data/icons/colourful-education/250/brain-128.png" parent="1" vertex="1">
          <mxGeometry x="9080" y="8180" width="100" height="100" as="geometry" />
        </mxCell>
        <mxCell id="cmqR2VDgh2ofJEkPEw-d-142" value="" style="shape=image;html=1;verticalAlign=top;verticalLabelPosition=bottom;labelBackgroundColor=#ffffff;imageAspect=0;aspect=fixed;image=https://cdn0.iconfinder.com/data/icons/colourful-education/250/brain-128.png" parent="1" vertex="1">
          <mxGeometry x="9742.25" y="8070" width="100" height="100" as="geometry" />
        </mxCell>
        <mxCell id="cmqR2VDgh2ofJEkPEw-d-143" value="" style="shape=image;html=1;verticalAlign=top;verticalLabelPosition=bottom;labelBackgroundColor=#ffffff;imageAspect=0;aspect=fixed;image=https://cdn0.iconfinder.com/data/icons/colourful-education/250/brain-128.png" parent="1" vertex="1">
          <mxGeometry x="10045.99" y="8070" width="100" height="100" as="geometry" />
        </mxCell>
        <mxCell id="cmqR2VDgh2ofJEkPEw-d-144" value="" style="shape=image;html=1;verticalAlign=top;verticalLabelPosition=bottom;labelBackgroundColor=#ffffff;imageAspect=0;aspect=fixed;image=https://cdn0.iconfinder.com/data/icons/colourful-education/250/brain-128.png" parent="1" vertex="1">
          <mxGeometry x="9938.25" y="8175" width="100" height="100" as="geometry" />
        </mxCell>
        <mxCell id="cmqR2VDgh2ofJEkPEw-d-145" value="" style="shape=image;html=1;verticalAlign=top;verticalLabelPosition=bottom;labelBackgroundColor=#ffffff;imageAspect=0;aspect=fixed;image=https://cdn0.iconfinder.com/data/icons/colourful-education/250/brain-128.png" parent="1" vertex="1">
          <mxGeometry x="10150" y="7484" width="100" height="100" as="geometry" />
        </mxCell>
        <mxCell id="cmqR2VDgh2ofJEkPEw-d-146" value="" style="shape=image;html=1;verticalAlign=top;verticalLabelPosition=bottom;labelBackgroundColor=#ffffff;imageAspect=0;aspect=fixed;image=https://cdn0.iconfinder.com/data/icons/colourful-education/250/brain-128.png" parent="1" vertex="1">
          <mxGeometry x="10409.27" y="7475" width="100" height="100" as="geometry" />
        </mxCell>
        <mxCell id="cmqR2VDgh2ofJEkPEw-d-147" value="" style="rounded=0;whiteSpace=wrap;html=1;fillColor=#f5f5f5;strokeColor=#666666;opacity=50;fontColor=#333333;strokeWidth=3;" parent="1" vertex="1">
          <mxGeometry x="8042.25" y="7621" width="1135.49" height="248" as="geometry" />
        </mxCell>
        <mxCell id="cmqR2VDgh2ofJEkPEw-d-148" value="&lt;font style=&quot;font-size: 64px;&quot;&gt;Smart Contract Wallets&lt;/font&gt;" style="text;html=1;strokeColor=none;fillColor=none;align=center;verticalAlign=middle;whiteSpace=wrap;rounded=0;fontStyle=1;fontSize=45;" parent="1" vertex="1">
          <mxGeometry x="8258.68" y="7810" width="765.63" height="30" as="geometry" />
        </mxCell>
        <mxCell id="cmqR2VDgh2ofJEkPEw-d-149" value="&lt;font style=&quot;font-size: 58px;&quot;&gt;Safe&lt;/font&gt;" style="rounded=1;whiteSpace=wrap;html=1;fillColor=#bac8d3;strokeColor=#23445d;container=0;fontStyle=1" parent="1" vertex="1">
          <mxGeometry x="8119.999999999999" y="7690" width="300" height="80" as="geometry" />
        </mxCell>
        <mxCell id="cmqR2VDgh2ofJEkPEw-d-150" value="&lt;font style=&quot;font-size: 58px;&quot;&gt;Argent&lt;/font&gt;" style="rounded=1;whiteSpace=wrap;html=1;fillColor=#bac8d3;strokeColor=#23445d;container=0;fontStyle=1" parent="1" vertex="1">
          <mxGeometry x="8461.51" y="7690" width="300" height="80" as="geometry" />
        </mxCell>
        <mxCell id="cmqR2VDgh2ofJEkPEw-d-151" value="&lt;font style=&quot;font-size: 58px;&quot;&gt;Biconomy&lt;/font&gt;" style="rounded=1;whiteSpace=wrap;html=1;fillColor=#bac8d3;strokeColor=#23445d;container=0;fontStyle=1" parent="1" vertex="1">
          <mxGeometry x="8800" y="7690" width="300" height="80" as="geometry" />
        </mxCell>
      </root>
    </mxGraphModel>
  </diagram>
</mxfile>
